<svg width="283" height="82" viewBox="0 0 283 82" fill="none" xmlns="http://www.w3.org/2000/svg">
<path fill-rule="evenodd" clip-rule="evenodd" d="M18.9495 41.7358C18.9495 33.8589 14.8361 26.8989 8.54776 22.7059C5.43828 26.3408 3.80533 30.736 3.80533 35.4208C3.80533 43.3534 8.61539 50.2137 15.6034 53.4889C17.7298 50.0421 18.9495 46.025 18.9495 41.7356V41.7358Z" fill="#4ADE80"/>
<mask id="mask0_22_2" style="mask-type:luminance" maskUnits="userSpaceOnUse" x="3" y="22" width="16" height="32">
<path d="M18.9495 41.7358C18.9495 33.8589 14.8361 26.8989 8.54776 22.7059C5.43828 26.3408 3.80533 30.736 3.80533 35.4208C3.80533 43.3534 8.61539 50.2137 15.6034 53.4889C17.7298 50.0421 18.9495 46.025 18.9495 41.7356V41.7358Z" fill="white"/>
</mask>
<g mask="url(#mask0_22_2)">
<path fill-rule="evenodd" clip-rule="evenodd" d="M22.5904 35.7866C22.5904 27.9097 18.4772 20.9497 12.1889 16.7567C9.0794 20.3915 7.44644 24.7868 7.44644 29.4715C7.44644 37.4042 12.2565 44.2644 19.2445 47.5399C21.3709 44.0929 22.5904 40.0758 22.5904 35.7864V35.7866Z" fill="#4ADE80"/>
</g>
<path fill-rule="evenodd" clip-rule="evenodd" d="M30.5991 41.8118C30.5991 33.9347 34.7123 26.9747 41.0006 22.7819C44.1101 26.4167 45.7431 30.8118 45.7431 35.4966C45.7431 43.4292 40.933 50.2895 33.945 53.5649C31.8186 50.1181 30.5991 46.1008 30.5991 41.8116V41.8118Z" fill="#4ADE80"/>
<mask id="mask1_22_2" style="mask-type:luminance" maskUnits="userSpaceOnUse" x="30" y="22" width="16" height="32">
<path d="M30.5991 41.8118C30.5991 33.9347 34.7123 26.9747 41.0006 22.7819C44.1101 26.4167 45.7431 30.8118 45.7431 35.4966C45.7431 43.4292 40.933 50.2895 33.945 53.5649C31.8186 50.1181 30.5991 46.1008 30.5991 41.8116V41.8118Z" fill="white"/>
</mask>
<g mask="url(#mask1_22_2)">
<path fill-rule="evenodd" clip-rule="evenodd" d="M27.0519 35.8712C27.0519 27.9943 31.1653 21.0341 37.4536 16.8412C40.5629 20.4761 42.1961 24.8714 42.1961 29.5561C42.1961 37.4887 37.386 44.349 30.3978 47.6243C28.2716 44.1775 27.0519 40.1603 27.0519 35.871V35.8712Z" fill="#4ADE80"/>
</g>
<path fill-rule="evenodd" clip-rule="evenodd" d="M30.6856 41.7358C30.6856 36.4735 32.5215 31.6205 35.6153 27.7284C32.6924 30.0694 28.9235 31.4789 24.8096 31.4789C20.6625 31.4789 16.8661 30.0465 13.9334 27.6715C17.0545 31.5732 18.9082 36.4479 18.9082 41.7358C18.9082 46.025 17.6884 50.0425 15.5621 53.4891C15.6001 53.5071 15.6381 53.5247 15.6764 53.5423C17.4522 50.4732 20.8765 48.3948 24.8096 48.3948C28.7522 48.3948 32.1837 50.4835 33.9557 53.5651C33.9876 53.5503 34.0196 53.5357 34.0513 53.5209C31.9128 50.0672 30.6856 46.0383 30.6856 41.7358Z" fill="white"/>
<path fill-rule="evenodd" clip-rule="evenodd" d="M11.1041 16.4584C11.1041 13.3626 13.7229 10.8529 16.9533 10.8529C20.1836 10.8529 22.8024 13.3626 22.8024 16.4584C22.8024 19.5544 20.1836 22.0639 16.9533 22.0639C13.7229 22.0639 11.1041 19.5544 11.1041 16.4584ZM24.8186 29.8701C19.5666 29.8701 14.9838 27.1345 12.5488 23.0747L12.543 23.0712C13.8162 23.8525 15.3294 24.3055 16.9535 24.3055C19.7417 24.3055 22.2043 22.9703 23.6827 20.9304C23.6843 20.933 23.6861 20.9357 23.6875 20.9385L24.8182 23.1142L25.9385 20.9276L25.9458 20.9175C25.9483 20.9143 25.951 20.925 25.9536 20.9284C27.4321 22.9694 29.895 24.3057 32.6842 24.3057C34.306 24.3057 35.8174 23.8542 37.0893 23.0747C34.6543 27.1347 30.0713 29.8703 24.819 29.8703L24.8186 29.8701ZM11.3193 24.8585C12.1446 26.0796 13.1473 27.1817 14.292 28.1314C14.3282 28.1616 14.3647 28.1915 14.4012 28.2213C17.2052 30.5059 20.8432 31.8853 24.8186 31.8853C28.7555 31.8853 32.3615 30.5327 35.1542 28.2877C35.1795 28.2675 35.2048 28.2469 35.2299 28.2267C36.4261 27.2529 37.4707 26.1144 38.3253 24.8482C40.0954 22.2245 40.8723 19.3532 40.8723 16.4582C40.8723 12.1243 37.2065 8.6113 32.684 8.6113C28.9547 8.6113 25.8077 11.0004 24.8186 14.2686C23.8296 11.0004 20.6829 8.6113 16.9533 8.6113C12.4308 8.6113 8.76501 12.1245 8.76501 16.4582C8.76501 18.3456 8.56898 20.7897 11.3193 24.8585ZM26.8348 16.4582C26.8348 13.3625 29.4536 10.8527 32.6838 10.8527C35.914 10.8527 38.533 13.3625 38.533 16.4582C38.533 19.5542 35.914 22.0638 32.6838 22.0638C29.4536 22.0638 26.8348 19.5542 26.8348 16.4582Z" fill="#4ADE80"/>
<path fill-rule="evenodd" clip-rule="evenodd" d="M9.64375 11.9658L24.8557 14.8964L39.9795 11.9658V2.79172H42.1233V8.99525H41.3574V13.241H45.8056V8.99525H45.0397V2.79172H46.8064V0.00785873H39.9795V0H9.64375V0.00785873H2.7079V2.79172H9.64375V11.9658Z" fill="#4ADE80"/>
<path fill-rule="evenodd" clip-rule="evenodd" d="M23.6825 20.9306C22.2038 22.9705 19.7414 24.3057 16.9533 24.3057C15.3317 24.3057 13.8205 23.8542 12.5486 23.0749C14.9835 27.1347 19.5664 29.8703 24.8183 29.8703C30.0706 29.8703 34.6537 27.1347 37.0886 23.0747C35.8168 23.8542 34.3053 24.3057 32.6836 24.3057C29.8944 24.3057 27.4314 22.9694 25.953 20.9284C25.9504 20.925 25.9477 20.9143 25.9451 20.9175L25.9379 20.9276L24.8175 23.1142L23.6868 20.9385C23.6854 20.9357 23.6837 20.933 23.6821 20.9304L23.6825 20.9306Z" fill="white"/>
<path fill-rule="evenodd" clip-rule="evenodd" d="M12.7467 12.5635C11.7299 13.572 11.1041 14.9452 11.1041 16.4584C11.1041 19.5544 13.7229 22.0639 16.9534 22.0639C20.1836 22.0639 22.8024 19.5544 22.8024 16.4584C22.8024 15.7408 22.6619 15.0549 22.4053 14.4243L12.7465 12.5635H12.7467Z" fill="white"/>
<path fill-rule="evenodd" clip-rule="evenodd" d="M26.8346 16.4584C26.8346 19.5544 29.4536 22.0639 32.6839 22.0639C35.9141 22.0639 38.5331 19.5544 38.5331 16.4584C38.5331 14.9454 37.9078 13.5728 36.8911 12.5642L27.2265 14.437C26.9732 15.064 26.8344 15.7459 26.8344 16.4584H26.8346Z" fill="white"/>
<path fill-rule="evenodd" clip-rule="evenodd" d="M32.8185 13.7687C34.9514 13.7687 36.6804 15.4188 36.6804 17.4548C36.6804 19.4904 34.9514 21.1407 32.8185 21.1407C30.6859 21.1407 28.9569 19.4904 28.9569 17.4548C28.9569 17.0014 29.0431 16.5669 29.1999 16.1658C29.473 16.4202 29.8465 16.5772 30.2585 16.5772C31.0958 16.5772 31.7744 15.9295 31.7744 15.1305C31.7744 14.7114 31.5874 14.3338 31.2891 14.0696C31.7584 13.8761 32.2753 13.7687 32.8187 13.7687H32.8185Z" fill="#4ADE80"/>
<path fill-rule="evenodd" clip-rule="evenodd" d="M16.8152 13.7687C18.948 13.7687 20.6771 15.4188 20.6771 17.4548C20.6771 19.4904 18.948 21.1407 16.8152 21.1407C14.6826 21.1407 12.9535 19.4904 12.9535 17.4548C12.9535 17.0014 13.0396 16.5669 13.1964 16.1658C13.4697 16.4202 13.8431 16.5772 14.2552 16.5772C15.0925 16.5772 15.7711 15.9295 15.7711 15.1305C15.7711 14.7114 15.5841 14.3338 15.2857 14.0696C15.7551 13.8761 16.272 13.7687 16.8154 13.7687H16.8152Z" fill="#4ADE80"/>
<path fill-rule="evenodd" clip-rule="evenodd" d="M12.9588 40.9157H36.4458L48.0119 53.5366L24.7181 80.2642L1.49833 53.5426L12.9588 40.9157Z" fill="#4ADE80"/>
<path fill-rule="evenodd" clip-rule="evenodd" d="M12.9678 40.8478L36.4458 40.9157L48.0119 53.5366L1.49833 53.5426L12.9678 40.8478Z" fill="#4ADE80"/>
<path fill-rule="evenodd" clip-rule="evenodd" d="M12.9673 53.5413L24.7648 40.9157L36.446 53.5381L24.7181 80.2642L12.9673 53.5413Z" fill="#4ADE80"/>
<path fill-rule="evenodd" clip-rule="evenodd" d="M6.6097 46.2735L4.673e-05 53.5559L24.7169 82L49.5145 53.5471L42.9274 46.3594L36.95 39.837H30.832H30.759H18.7961H18.7555H12.4513L6.6095 46.2735H6.6097ZM1.59125 53.5722L7.23485 47.3256L13.0149 40.9279L18.9031 40.9447L18.9435 40.9449L30.604 40.9786L30.681 40.979L36.3991 40.9956L42.2921 47.4257L47.9194 53.5662L24.7183 80.1875L1.59125 53.5724V53.5722Z" fill="#4ADE80"/>
<path d="M124.848 31.4429C128.112 31.4429 130.736 32.4509 132.72 34.4669C134.736 36.4509 135.744 39.2349 135.744 42.8189V58.4189H129.024V43.7309C129.024 41.6509 128.496 40.0669 127.44 38.9789C126.384 37.8589 124.944 37.2989 123.12 37.2989C121.296 37.2989 119.84 37.8589 118.752 38.9789C117.696 40.0669 117.168 41.6509 117.168 43.7309V58.4189H110.448V43.7309C110.448 41.6509 109.92 40.0669 108.864 38.9789C107.808 37.8589 106.368 37.2989 104.544 37.2989C102.688 37.2989 101.216 37.8589 100.128 38.9789C99.0725 40.0669 98.5445 41.6509 98.5445 43.7309V58.4189H91.8245V31.8269H98.5445V35.0429C99.4085 33.9229 100.512 33.0429 101.856 32.4029C103.232 31.7629 104.736 31.4429 106.368 31.4429C108.448 31.4429 110.304 31.8909 111.936 32.7869C113.568 33.6509 114.832 34.8989 115.728 36.5309C116.592 34.9949 117.84 33.7629 119.472 32.8349C121.136 31.9069 122.928 31.4429 124.848 31.4429ZM140.393 45.1229C140.393 42.3709 140.953 39.9709 142.073 37.9229C143.193 35.8429 144.745 34.2429 146.729 33.1229C148.713 31.9709 150.985 31.3949 153.545 31.3949C156.841 31.3949 159.561 32.2269 161.705 33.8909C163.881 35.5229 165.337 37.8269 166.073 40.8029H158.825C158.441 39.6509 157.785 38.7549 156.857 38.1149C155.961 37.4429 154.841 37.1069 153.497 37.1069C151.577 37.1069 150.057 37.8109 148.937 39.2189C147.817 40.5949 147.257 42.5629 147.257 45.1229C147.257 47.6509 147.817 49.6189 148.937 51.0269C150.057 52.4029 151.577 53.0909 153.497 53.0909C156.217 53.0909 157.993 51.8749 158.825 49.4429H166.073C165.337 52.3229 163.881 54.6109 161.705 56.3069C159.529 58.0029 156.809 58.8509 153.545 58.8509C150.985 58.8509 148.713 58.2909 146.729 57.1709C144.745 56.0189 143.193 54.4189 142.073 52.3709C140.953 50.2909 140.393 47.8749 140.393 45.1229ZM177.716 35.6669C178.58 34.4509 179.764 33.4429 181.268 32.6429C182.804 31.8109 184.548 31.3949 186.5 31.3949C188.772 31.3949 190.82 31.9549 192.644 33.0749C194.5 34.1949 195.956 35.7949 197.012 37.8749C198.1 39.9229 198.644 42.3069 198.644 45.0269C198.644 47.7469 198.1 50.1629 197.012 52.2749C195.956 54.3549 194.5 55.9709 192.644 57.1229C190.82 58.2749 188.772 58.8509 186.5 58.8509C184.548 58.8509 182.82 58.4509 181.316 57.6509C179.844 56.8509 178.644 55.8429 177.716 54.6269V71.0909H170.996V31.8269H177.716V35.6669ZM191.78 45.0269C191.78 43.4269 191.444 42.0509 190.772 40.8989C190.132 39.7149 189.268 38.8189 188.18 38.2109C187.124 37.6029 185.972 37.2989 184.724 37.2989C183.508 37.2989 182.356 37.6189 181.268 38.2589C180.212 38.8669 179.348 39.7629 178.676 40.9469C178.036 42.1309 177.716 43.5229 177.716 45.1229C177.716 46.7229 178.036 48.1149 178.676 49.2989C179.348 50.4829 180.212 51.3949 181.268 52.0349C182.356 52.6429 183.508 52.9469 184.724 52.9469C185.972 52.9469 187.124 52.6269 188.18 51.9869C189.268 51.3469 190.132 50.4349 190.772 49.2509C191.444 48.0669 191.78 46.6589 191.78 45.0269ZM215.72 37.3469H211.064V58.4189H204.248V37.3469H201.224V31.8269H204.248V30.4829C204.248 27.2189 205.176 24.8189 207.032 23.2829C208.888 21.7469 211.688 21.0269 215.432 21.1229V26.7869C213.8 26.7549 212.664 27.0269 212.024 27.6029C211.384 28.1789 211.064 29.2189 211.064 30.7229V31.8269H215.72V37.3469ZM226.794 22.8989V58.4189H220.074V22.8989H226.794ZM236.842 28.6589C235.658 28.6589 234.666 28.2909 233.866 27.5549C233.098 26.7869 232.714 25.8429 232.714 24.7229C232.714 23.6029 233.098 22.6749 233.866 21.9389C234.666 21.1709 235.658 20.7869 236.842 20.7869C238.026 20.7869 239.002 21.1709 239.77 21.9389C240.57 22.6749 240.97 23.6029 240.97 24.7229C240.97 25.8429 240.57 26.7869 239.77 27.5549C239.002 28.2909 238.026 28.6589 236.842 28.6589ZM240.154 31.8269V58.4189H233.434V31.8269H240.154ZM261.481 58.4189L256.009 50.1629L251.161 58.4189H243.961L252.649 45.0749L243.865 31.8269H251.449L256.873 40.0349L261.769 31.8269H268.969L260.233 45.0749L269.065 58.4189H261.481ZM275.691 58.7549C274.475 58.7549 273.467 58.3869 272.667 57.6509C271.899 56.8829 271.515 55.9389 271.515 54.8189C271.515 53.6989 271.899 52.7709 272.667 52.0349C273.467 51.2669 274.475 50.8829 275.691 50.8829C276.875 50.8829 277.851 51.2669 278.619 52.0349C279.387 52.7709 279.771 53.6989 279.771 54.8189C279.771 55.9389 279.387 56.8829 278.619 57.6509C277.851 58.3869 276.875 58.7549 275.691 58.7549Z" fill="#4ADE80"/>
</svg>
